# xmcd
#
# Track frame offsets:
#	150
#	14180
#	28045
#	40747
#	53320
#	67872
#	82797
#	97272
#	110892
#	123840
#	137975
#	152877
#	165792
#	180470
#	195092
#	209240
#	221990
#	234490
#	249125
#	262885
#	276525
#	290645
#	304982
#	326762
#
# Disc length: 4763 seconds
#
# Revision: 1
# Processed by: cddbd v1.4PL0 Copyright (c) Steve Scherf et al.
# Submitted via: audiograbber 1.82.02
#
DISCID=5d129918
DTITLE=Misc - Piano Blues
DYEAR=1927
DGENRE=Blues
TTITLE0=Bert Mays - Midnight Rambler's Blues
TTITLE1=Bert Mays - Oh-Oh Blues
TTITLE2=Bert Mays - Troublesome Mind Blues
TTITLE3=Bert Mays - Mama Man Blues
TTITLE4=Berrt Mays - Michigan River Blues
TTITLE5=Bert Mays - You Can't Come In
TTITLE6=Blind Clyde Church - Number Nine Blues
TTITLE7=Blind Clyde Church - Pneumatic Blues
TTITLE8=Dan Stewart - new Orleans Blues
TTITLE9=Jim Clark - Fat Fanny Stomp
TTITLE10=Judson Brown - You Don't Know My Mind Blues
TTITLE11=Joe Dean - Mexcio Bound Blues
TTITLE12=Joe Dean - I'm so Glad I'm Twenty-One Years Old Today
TTITLE13=James "Bat" Robinson - You Left Me Alone
TTITLE14=James "Bat" Robinson - Bat's Own Blues
TTITLE15=James "Bat" Robinson - Humming Blues
TTITLE16=Pigmeat Terry - Moaning the Blues
TTITLE17=Pigmeat Terry - Black Sheep Blues
TTITLE18=Jesse James - Sweet Patuni
TTITLE19=Jesse James - Southern Casey Jones
TTITLE20=Jesse James - Lonesome Day Blues
TTITLE21=Jesse James - Highway 61
TTITLE22=Bat "The Humnmingbird" Robinson - Bat's Blues
TTITLE23=Bat "The Hummingbird" Robinson - Four O'Clock
EXTD=
EXTT0=1927
EXTT1=
EXTT2=
EXTT3=
EXTT4=
EXTT5=
EXTT6=
EXTT7=
EXTT8=
EXTT9=
EXTT10=
EXTT11=
EXTT12=
EXTT13=
EXTT14=
EXTT15=
EXTT16=
EXTT17=
EXTT18=
EXTT19=
EXTT20=
EXTT21=
EXTT22=
EXTT23=
PLAYORDER=
